<svg width="43" height="42" viewBox="0 0 43 42" fill="none" xmlns="http://www.w3.org/2000/svg">
<path opacity="0.2" d="M29.5391 11.2875C30.2901 12.6551 30.685 14.1897 30.6875 15.75V16.3898C30.6901 16.9824 30.4897 17.5579 30.1195 18.0207C29.7493 18.4834 29.2318 18.8053 28.6531 18.9328C26.3055 19.4575 23.9054 19.7107 21.5 19.6875C19.0946 19.7107 16.6945 19.4575 14.3469 18.9328C13.7682 18.8053 13.2507 18.4834 12.8805 18.0207C12.5103 17.5579 12.3099 16.9824 12.3125 16.3898V15.8812C12.3135 14.2708 12.7317 12.6881 13.5266 11.2875C7.37422 12.5508 3.125 15.2578 3.125 18.375C3.125 22.7226 11.3445 26.25 21.5 26.25C31.6555 26.25 39.875 22.7226 39.875 18.375C39.875 15.2578 35.6586 12.5672 29.5391 11.2875Z" fill="#009379"/>
<path d="M28.1938 30.9586L28.8337 34.8305" stroke="#009379" stroke-width="2" stroke-linecap="round" stroke-linejoin="round"/>
<path d="M21.5 31.5V36.75" stroke="#009379" stroke-width="2" stroke-linecap="round" stroke-linejoin="round"/>
<path d="M14.8063 30.9586L14.1665 34.8305" stroke="#009379" stroke-width="2" stroke-linecap="round" stroke-linejoin="round"/>
<path d="M29.5391 11.2875C35.6586 12.5672 39.875 15.2578 39.875 18.375C39.875 22.7226 31.6555 26.25 21.5 26.25C11.3445 26.25 3.125 22.7226 3.125 18.375C3.125 15.2578 7.37422 12.5508 13.5266 11.2875" stroke="#009379" stroke-width="2" stroke-linecap="round" stroke-linejoin="round"/>
<path d="M12.3125 16.3898C12.3099 16.9824 12.5104 17.558 12.8805 18.0207C13.2507 18.4834 13.7682 18.8053 14.3469 18.9328C16.6945 19.4575 19.0946 19.7107 21.5 19.6875C23.9054 19.7107 26.3056 19.4575 28.6532 18.9328C29.2318 18.8053 29.7494 18.4834 30.1195 18.0207C30.4897 17.558 30.6902 16.9824 30.6875 16.3898V15.75C30.6876 14.5337 30.4462 13.3296 29.9773 12.2074C29.5085 11.0851 28.8214 10.0672 27.9561 9.2125C27.0908 8.35784 26.0643 7.68351 24.9364 7.2286C23.8084 6.7737 22.6013 6.54728 21.3852 6.56249C16.3321 6.62811 12.3125 10.8445 12.3125 15.8812V16.3898Z" stroke="#009379" stroke-width="2" stroke-linecap="round" stroke-linejoin="round"/>
</svg>
