<svg width="42" height="43" viewBox="0 0 42 43" fill="none" xmlns="http://www.w3.org/2000/svg">
<path opacity="0.2" d="M29.0391 11.9C29.7901 13.2677 30.185 14.8023 30.1875 16.3625V17.0024C30.1901 17.5949 29.9897 18.1705 29.6195 18.6332C29.2493 19.0959 28.7318 19.4178 28.1531 19.5453C25.8055 20.0701 23.4054 20.3233 21 20.3C18.5946 20.3233 16.1945 20.0701 13.8469 19.5453C13.2682 19.4178 12.7507 19.0959 12.3805 18.6332C12.0103 18.1705 11.8099 17.5949 11.8125 17.0024V16.4938C11.8135 14.8833 12.2317 13.3006 13.0266 11.9C6.87422 13.1633 2.625 15.8703 2.625 18.9875C2.625 23.3352 10.8445 26.8625 21 26.8625C31.1555 26.8625 39.375 23.3352 39.375 18.9875C39.375 15.8703 35.1586 13.1797 29.0391 11.9Z" fill="#009379"/>
<path d="M27.6934 31.5712L28.3332 35.443" stroke="#009379" stroke-width="2" stroke-linecap="round" stroke-linejoin="round"/>
<path d="M21 32.1125V37.3625" stroke="#009379" stroke-width="2" stroke-linecap="round" stroke-linejoin="round"/>
<path d="M14.3059 31.5712L13.666 35.443" stroke="#009379" stroke-width="2" stroke-linecap="round" stroke-linejoin="round"/>
<path d="M29.0391 11.9C35.1586 13.1797 39.375 15.8703 39.375 18.9875C39.375 23.3352 31.1555 26.8625 21 26.8625C10.8445 26.8625 2.625 23.3352 2.625 18.9875C2.625 15.8703 6.87422 13.1633 13.0266 11.9" stroke="#009379" stroke-width="2" stroke-linecap="round" stroke-linejoin="round"/>
<path d="M11.8125 17.0024C11.8099 17.5949 12.0104 18.1705 12.3805 18.6332C12.7507 19.0959 13.2682 19.4178 13.8469 19.5453C16.1945 20.0701 18.5946 20.3233 21 20.3C23.4054 20.3233 25.8056 20.0701 28.1532 19.5453C28.7318 19.4178 29.2494 19.0959 29.6195 18.6332C29.9897 18.1705 30.1902 17.5949 30.1875 17.0024V16.3625C30.1876 15.1463 29.9462 13.9421 29.4773 12.8199C29.0085 11.6977 28.3214 10.6797 27.4561 9.82505C26.5908 8.97039 25.5643 8.29606 24.4364 7.84115C23.3084 7.38625 22.1013 7.15983 20.8852 7.17503C15.8321 7.24066 11.8125 11.4571 11.8125 16.4938V17.0024Z" stroke="#009379" stroke-width="2" stroke-linecap="round" stroke-linejoin="round"/>
</svg>
