<svg width="42" height="43" viewBox="0 0 42 43" fill="none" xmlns="http://www.w3.org/2000/svg">
<path opacity="0.2" d="M11.4355 36.4274C11.3134 36.5514 11.1678 36.6499 11.0073 36.7171C10.8467 36.7843 10.6744 36.8189 10.5003 36.8189C10.3263 36.8189 10.154 36.7843 9.99343 36.7171C9.83289 36.6499 9.68731 36.5514 9.56519 36.4274L6.1855 33.0477C6.06149 32.9256 5.96301 32.78 5.89579 32.6195C5.82856 32.4589 5.79395 32.2866 5.79395 32.1125C5.79395 31.9385 5.82856 31.7662 5.89579 31.6056C5.96301 31.4451 6.06149 31.2995 6.1855 31.1774L23.6253 13.7375L28.8753 18.9875L11.4355 36.4274Z" fill="#FF6250"/>
<path d="M35.4375 21.6125V29.4875" stroke="#FF6250" stroke-width="2.375" stroke-linecap="round" stroke-linejoin="round"/>
<path d="M31.5 25.55H39.375" stroke="#FF6250" stroke-width="2.375" stroke-linecap="round" stroke-linejoin="round"/>
<path d="M13.7812 7.17505V13.7375" stroke="#FF6250" stroke-width="2.375" stroke-linecap="round" stroke-linejoin="round"/>
<path d="M10.5 10.4563H17.0625" stroke="#FF6250" stroke-width="2.375" stroke-linecap="round" stroke-linejoin="round"/>
<path d="M27.5625 30.8V36.05" stroke="#FF6250" stroke-width="2.375" stroke-linecap="round" stroke-linejoin="round"/>
<path d="M24.9375 33.425H30.1875" stroke="#FF6250" stroke-width="2.375" stroke-linecap="round" stroke-linejoin="round"/>
<path d="M30.5857 6.78653L6.18882 31.1834C5.67626 31.6959 5.67626 32.527 6.18882 33.0395L9.5821 36.4328C10.0947 36.9454 10.9257 36.9454 11.4383 36.4328L35.8351 12.036C36.3477 11.5234 36.3477 10.6924 35.8351 10.1798L32.4418 6.78653C31.9293 6.27397 31.0982 6.27397 30.5857 6.78653Z" stroke="#FF6250" stroke-width="2.375" stroke-linecap="round" stroke-linejoin="round"/>
<path d="M23.625 13.7375L28.875 18.9875" stroke="#FF6250" stroke-width="2.375" stroke-linecap="round" stroke-linejoin="round"/>
</svg>
