<svg width="43" height="42" viewBox="0 0 43 42" fill="none" xmlns="http://www.w3.org/2000/svg">
<path opacity="0.2" d="M5.93047 12.239C5.81159 12.4432 5.74929 12.6754 5.75001 12.9117V29.0882C5.75126 29.3219 5.81411 29.5511 5.9322 29.7527C6.0503 29.9544 6.21947 30.1213 6.42266 30.2367L20.8602 38.3578C21.0548 38.469 21.2759 38.5257 21.5 38.5218L21.6477 21L5.93047 12.239Z" fill="#F8D57E"/>
<path d="M37.25 29.0882V12.9117C37.2487 12.678 37.1859 12.4488 37.0678 12.2472C36.9497 12.0456 36.7805 11.8786 36.5773 11.7632L22.1398 3.64215C21.9453 3.52983 21.7246 3.4707 21.5 3.4707C21.2754 3.4707 21.0547 3.52983 20.8602 3.64215L6.42266 11.7632C6.21947 11.8786 6.05029 12.0456 5.9322 12.2472C5.8141 12.4488 5.75125 12.678 5.75 12.9117V29.0882C5.75125 29.3219 5.8141 29.5511 5.9322 29.7527C6.05029 29.9544 6.21947 30.1213 6.42266 30.2367L20.8602 38.3578C21.0547 38.4701 21.2754 38.5292 21.5 38.5292C21.7246 38.5292 21.9453 38.4701 22.1398 38.3578L36.5773 30.2367C36.7805 30.1213 36.9497 29.9544 37.0678 29.7527C37.1859 29.5511 37.2487 29.3219 37.25 29.0882V29.0882Z" stroke="#F8D57E" stroke-width="2" stroke-linecap="round" stroke-linejoin="round"/>
<path d="M29.5391 25.0195V16.4883L13.625 7.71094" stroke="#F8D57E" stroke-width="2" stroke-linecap="round" stroke-linejoin="round"/>
<path d="M37.0697 12.239L21.6479 21L5.93066 12.239" stroke="#F8D57E" stroke-width="2" stroke-linecap="round" stroke-linejoin="round"/>
<path d="M21.6477 21L21.5 38.5219" stroke="#F8D57E" stroke-width="2" stroke-linecap="round" stroke-linejoin="round"/>
</svg>
