<svg width="24" height="25" viewBox="0 0 24 25" fill="none" xmlns="http://www.w3.org/2000/svg">
<path opacity="0.2" d="M8.67187 12.3072C9.44364 13.901 10.7324 15.1864 12.3281 15.9541C12.4458 16.0098 12.576 16.0339 12.7059 16.0241C12.8358 16.0142 12.9608 15.9707 13.0687 15.8978L15.4125 14.3322C15.516 14.262 15.6357 14.2191 15.7603 14.2076C15.8849 14.1962 16.0104 14.2164 16.125 14.2666L20.5125 16.151C20.6625 16.2134 20.7877 16.3233 20.869 16.4639C20.9504 16.6045 20.9832 16.768 20.9625 16.9291C20.8234 18.0145 20.2937 19.012 19.4723 19.735C18.6509 20.458 17.5943 20.857 16.5 20.8572C13.1185 20.8572 9.87548 19.5139 7.48439 17.1228C5.0933 14.7317 3.75 11.4887 3.75 8.10721C3.75025 7.01296 4.1492 5.95628 4.87221 5.13492C5.59522 4.31355 6.59274 3.78377 7.67812 3.64471C7.83922 3.62401 8.00266 3.65685 8.14326 3.73817C8.28386 3.81948 8.39384 3.94476 8.45625 4.09471L10.3406 8.49158C10.3896 8.60441 10.4101 8.72756 10.4003 8.85017C10.3905 8.97279 10.3507 9.09111 10.2844 9.19471L8.71875 11.576C8.64905 11.6837 8.60814 11.8074 8.59993 11.9355C8.59172 12.0635 8.61649 12.1915 8.67187 12.3072Z" fill="#831742"/>
<path d="M8.67187 12.3072C9.44364 13.901 10.7324 15.1864 12.3281 15.9541C12.4458 16.0098 12.576 16.0339 12.7059 16.0241C12.8358 16.0142 12.9608 15.9707 13.0687 15.8978L15.4125 14.3322C15.516 14.262 15.6357 14.2191 15.7603 14.2076C15.8849 14.1962 16.0104 14.2164 16.125 14.2666L20.5125 16.151C20.6625 16.2134 20.7877 16.3233 20.869 16.4639C20.9504 16.6045 20.9832 16.768 20.9625 16.9291C20.8234 18.0145 20.2937 19.012 19.4723 19.735C18.6509 20.458 17.5943 20.857 16.5 20.8572C13.1185 20.8572 9.87548 19.5139 7.48439 17.1228C5.0933 14.7317 3.75 11.4887 3.75 8.10721C3.75025 7.01296 4.1492 5.95628 4.87221 5.13492C5.59522 4.31355 6.59274 3.78377 7.67812 3.64471C7.83922 3.62401 8.00266 3.65685 8.14326 3.73817C8.28386 3.81948 8.39384 3.94476 8.45625 4.09471L10.3406 8.49158C10.3896 8.60441 10.4101 8.72756 10.4003 8.85017C10.3905 8.97279 10.3507 9.09111 10.2844 9.19471L8.71875 11.576C8.64905 11.6837 8.60814 11.8074 8.59993 11.9355C8.59172 12.0635 8.61649 12.1915 8.67187 12.3072Z" stroke="#831742" stroke-width="1.5" stroke-linecap="round" stroke-linejoin="round"/>
<path d="M14.9438 4.35718C16.216 4.69859 17.3759 5.3686 18.3073 6.29997C19.2387 7.23134 19.9087 8.39129 20.2501 9.66343" stroke="#831742" stroke-width="1.5" stroke-linecap="round" stroke-linejoin="round"/>
<path d="M14.1655 7.25415C14.9306 7.45735 15.6284 7.8592 16.1882 8.41897C16.748 8.97874 17.1498 9.67654 17.353 10.4417" stroke="#831742" stroke-width="1.5" stroke-linecap="round" stroke-linejoin="round"/>
</svg>
