<svg width="21" height="20" viewBox="0 0 21 20" fill="none" xmlns="http://www.w3.org/2000/svg">
<path d="M7.85156 14.4219C6.96094 17.0703 3.42969 17.0703 3.42969 17.0703C3.42969 17.0703 3.42969 13.5391 6.07812 12.6484" stroke="#F8F9FF" stroke-width="1.66667" stroke-linecap="round" stroke-linejoin="round"/>
<path d="M15.8047 8.23438L10.5 13.5391L6.96094 10L12.2656 4.69532C14.2734 2.68751 16.2813 2.71094 17.1406 2.83594C17.2732 2.85364 17.3963 2.91448 17.4909 3.00907C17.5855 3.10367 17.6464 3.22677 17.6641 3.35938C17.7891 4.21876 17.8125 6.22657 15.8047 8.23438Z" stroke="#F8F9FF" stroke-width="1.66667" stroke-linecap="round" stroke-linejoin="round"/>
<path d="M14.9219 9.11718V14.1641C14.9195 14.3289 14.8521 14.4862 14.7344 14.6016L12.2109 17.1328C12.1309 17.2128 12.0306 17.2695 11.9208 17.2969C11.8111 17.3244 11.6959 17.3215 11.5876 17.2886C11.4794 17.2558 11.382 17.1941 11.3061 17.1102C11.2301 17.0264 11.1783 16.9235 11.1562 16.8125L10.5 13.5391" stroke="#F8F9FF" stroke-width="1.66667" stroke-linecap="round" stroke-linejoin="round"/>
<path d="M11.383 5.57813H6.33612C6.17127 5.58048 6.01402 5.64787 5.89862 5.76563L3.36737 8.28907C3.28741 8.36913 3.23068 8.46939 3.20323 8.57917C3.17579 8.68894 3.17866 8.80411 3.21154 8.91238C3.24442 9.02065 3.30608 9.11796 3.38994 9.19394C3.4738 9.26991 3.57671 9.32169 3.68769 9.34376L6.96112 10" stroke="#F8F9FF" stroke-width="1.66667" stroke-linecap="round" stroke-linejoin="round"/>
</svg>
