<svg width="32" height="33" viewBox="0 0 32 33" fill="none" xmlns="http://www.w3.org/2000/svg">
<path fill-rule="evenodd" clip-rule="evenodd" d="M0 16.2637C0 7.42712 7.16344 0.263672 16 0.263672C24.8366 0.263672 32 7.42712 32 16.2637C32 25.1002 24.8366 32.2637 16 32.2637C7.16344 32.2637 0 25.1002 0 16.2637Z" fill="#E5F4F2"/>
<path fill-rule="evenodd" clip-rule="evenodd" d="M16.0009 7.73047C13.6834 7.73047 13.3925 7.7406 12.4823 7.78202C11.5739 7.82363 10.9538 7.96745 10.4112 8.17847C9.84993 8.39643 9.37384 8.68799 8.89952 9.16248C8.42485 9.6368 8.13329 10.1129 7.91462 10.674C7.70307 11.2167 7.55906 11.837 7.51818 12.7451C7.47746 13.6553 7.4668 13.9464 7.4668 16.2639C7.4668 18.5814 7.47711 18.8714 7.51835 19.7816C7.56013 20.6901 7.70395 21.3102 7.9148 21.8527C8.13294 22.414 8.4245 22.8901 8.89899 23.3644C9.37313 23.8391 9.84922 24.1313 10.4101 24.3493C10.9531 24.5603 11.5733 24.7042 12.4816 24.7458C13.3918 24.7872 13.6825 24.7973 15.9999 24.7973C18.3176 24.7973 18.6075 24.7872 19.5178 24.7458C20.4262 24.7042 21.047 24.5603 21.59 24.3493C22.151 24.1313 22.6264 23.8391 23.1006 23.3644C23.5752 22.8901 23.8668 22.414 24.0855 21.8529C24.2952 21.3102 24.4392 20.6899 24.4819 19.7818C24.5228 18.8716 24.5335 18.5814 24.5335 16.2639C24.5335 13.9464 24.5228 13.6555 24.4819 12.7453C24.4392 11.8368 24.2952 11.2167 24.0855 10.6741C23.8668 10.1129 23.5752 9.6368 23.1006 9.16248C22.6259 8.68781 22.1512 8.39625 21.5894 8.17847C21.0454 7.96745 20.425 7.82363 19.5165 7.78202C18.6063 7.7406 18.3165 7.73047 15.9983 7.73047H16.0009ZM15.2354 9.26824C15.4626 9.26788 15.7161 9.26824 16.0009 9.26824C18.2793 9.26824 18.5494 9.27642 19.4491 9.31731C20.2811 9.35535 20.7327 9.49437 21.0335 9.61118C21.4317 9.76584 21.7156 9.95073 22.0141 10.2494C22.3128 10.5481 22.4977 10.8325 22.6527 11.2307C22.7695 11.5312 22.9087 11.9828 22.9466 12.8148C22.9875 13.7143 22.9963 13.9846 22.9963 16.2619C22.9963 18.5393 22.9875 18.8095 22.9466 19.7091C22.9085 20.5411 22.7695 20.9926 22.6527 21.2931C22.498 21.6913 22.3128 21.9749 22.0141 22.2734C21.7154 22.572 21.4319 22.7569 21.0335 22.9116C20.733 23.0289 20.2811 23.1676 19.4491 23.2056C18.5495 23.2465 18.2793 23.2554 16.0009 23.2554C13.7223 23.2554 13.4522 23.2465 12.5527 23.2056C11.7207 23.1672 11.2691 23.0282 10.9681 22.9114C10.5699 22.7567 10.2855 22.5718 9.98679 22.2732C9.68812 21.9745 9.50323 21.6908 9.3482 21.2924C9.2314 20.9919 9.0922 20.5404 9.05433 19.7083C9.01344 18.8088 9.00527 18.5386 9.00527 16.2598C9.00527 13.981 9.01344 13.7122 9.05433 12.8126C9.09238 11.9806 9.2314 11.5291 9.3482 11.2283C9.50287 10.83 9.68812 10.5456 9.98679 10.2469C10.2855 9.94825 10.5699 9.76335 10.9681 9.60833C11.2689 9.491 11.7207 9.35233 12.5527 9.31411C13.3399 9.27855 13.645 9.26788 15.2354 9.26611V9.26824ZM20.556 10.6851C19.9906 10.6851 19.532 11.1433 19.532 11.7088C19.532 12.2741 19.9906 12.7328 20.556 12.7328C21.1213 12.7328 21.58 12.2741 21.58 11.7088C21.58 11.1435 21.1213 10.6851 20.556 10.6851ZM16.0009 11.8816C13.5808 11.8816 11.6187 13.8438 11.6187 16.2639C11.6187 18.684 13.5808 20.6452 16.0009 20.6452C18.4211 20.6452 20.3825 18.684 20.3825 16.2639C20.3825 13.8438 18.4211 11.8816 16.0009 11.8816ZM16.0009 13.4194C17.5718 13.4194 18.8454 14.6928 18.8454 16.2639C18.8454 17.8347 17.5718 19.1083 16.0009 19.1083C14.4299 19.1083 13.1564 17.8347 13.1564 16.2639C13.1564 14.6928 14.4299 13.4194 16.0009 13.4194Z" fill="#2D2D2D"/>
</svg>
