<svg width="32" height="33" viewBox="0 0 32 33" fill="none" xmlns="http://www.w3.org/2000/svg">
<circle cx="16" cy="16.6123" r="16" fill="#4E4D4D"/>
<path d="M16.0001 4.6123C9.3735 4.6123 4 10.1208 4 16.9161C4 22.3523 7.43839 26.9642 12.2064 28.5912C12.8061 28.7051 13.0263 28.3243 13.0263 27.9993C13.0263 27.7059 13.0152 26.7367 13.01 25.7086C9.67157 26.4528 8.96712 24.2569 8.96712 24.2569C8.42125 22.8347 7.63473 22.4566 7.63473 22.4566C6.54596 21.6929 7.7168 21.7086 7.7168 21.7086C8.92181 21.7954 9.55632 22.9765 9.55632 22.9765C10.6266 24.8575 12.3636 24.3137 13.0484 23.9993C13.1561 23.2041 13.4671 22.6613 13.8102 22.3541C11.1449 22.043 8.34295 20.988 8.34295 16.2735C8.34295 14.9302 8.81172 13.8326 9.57937 12.971C9.45477 12.6611 9.04402 11.4097 9.69562 9.71492C9.69562 9.71492 10.7033 9.38424 12.9965 10.9761C13.9537 10.7035 14.9803 10.5668 16.0001 10.5621C17.0199 10.5668 18.0473 10.7035 19.0063 10.9761C21.2967 9.38424 22.303 9.71492 22.303 9.71492C22.9562 11.4097 22.5452 12.6611 22.4206 12.971C23.1901 13.8326 23.6557 14.9302 23.6557 16.2735C23.6557 20.9992 20.8484 22.0397 18.1762 22.3443C18.6067 22.7261 18.9902 23.4749 18.9902 24.6228C18.9902 26.2691 18.9763 27.594 18.9763 27.9993C18.9763 28.3267 19.1923 28.7104 19.8006 28.5895C24.566 26.9608 28 22.3504 28 16.9161C28 10.1208 22.6273 4.6123 16.0001 4.6123Z" fill="white"/>
<path d="M8.58043 22.1935C8.55405 22.254 8.46043 22.2721 8.37514 22.2306C8.28827 22.1908 8.23947 22.1083 8.26764 22.0476C8.29342 21.9853 8.38724 21.9679 8.47392 22.0097C8.56099 22.0494 8.61058 22.1327 8.58043 22.1935Z" fill="white"/>
<path d="M9.06559 22.7438C9.00846 22.7977 8.89679 22.7726 8.82103 22.6875C8.74268 22.6026 8.728 22.489 8.78592 22.4343C8.84483 22.3805 8.95312 22.4057 9.03167 22.4906C9.11002 22.5766 9.12529 22.6893 9.06559 22.7438Z" fill="white"/>
<path d="M9.53784 23.4454C9.46445 23.4973 9.34445 23.4487 9.27027 23.3403C9.19688 23.232 9.19688 23.1021 9.27186 23.05C9.34624 22.998 9.46445 23.0448 9.53963 23.1523C9.61282 23.2625 9.61282 23.3924 9.53784 23.4454Z" fill="white"/>
<path d="M10.1848 24.1233C10.1192 24.1969 9.97936 24.1771 9.87701 24.0767C9.77229 23.9784 9.74313 23.839 9.80898 23.7654C9.87543 23.6916 10.0161 23.7123 10.1192 23.812C10.2231 23.91 10.2549 24.0504 10.1848 24.1233Z" fill="white"/>
<path d="M11.0774 24.5169C11.0485 24.6123 10.9138 24.6557 10.7781 24.6151C10.6426 24.5733 10.554 24.4616 10.5813 24.3652C10.6095 24.2691 10.7448 24.2239 10.8814 24.2673C11.0167 24.3089 11.1056 24.4198 11.0774 24.5169Z" fill="white"/>
<path d="M12.0576 24.5899C12.061 24.6904 11.946 24.7737 11.8036 24.7755C11.6604 24.7787 11.5445 24.6974 11.5429 24.5986C11.5429 24.4971 11.6554 24.4146 11.7986 24.4122C11.941 24.4093 12.0576 24.49 12.0576 24.5899Z" fill="white"/>
<path d="M12.9699 24.4319C12.9869 24.53 12.8879 24.6306 12.7465 24.6575C12.6075 24.6833 12.4787 24.6228 12.4611 24.5255C12.4438 24.4251 12.5446 24.3244 12.6834 24.2984C12.8251 24.2734 12.9518 24.3323 12.9699 24.4319Z" fill="white"/>
</svg>
