<svg width="32" height="33" viewBox="0 0 32 33" fill="none" xmlns="http://www.w3.org/2000/svg">
<path fill-rule="evenodd" clip-rule="evenodd" d="M0 16.6123C0 7.77575 7.16344 0.612305 16 0.612305C24.8366 0.612305 32 7.77575 32 16.6123C32 25.4489 24.8366 32.6123 16 32.6123C7.16344 32.6123 0 25.4489 0 16.6123Z" fill="#4E4D4D"/>
<path fill-rule="evenodd" clip-rule="evenodd" d="M15.5208 13.6174L15.5544 14.171L14.9948 14.1032C12.9579 13.8434 11.1784 12.9621 9.66756 11.4819L8.92891 10.7475L8.73865 11.2899C8.33575 12.4988 8.59316 13.7756 9.43253 14.6343C9.8802 15.1088 9.77948 15.1766 9.00725 14.8942C8.73865 14.8038 8.50363 14.736 8.48124 14.7699C8.4029 14.849 8.6715 15.8771 8.88414 16.2839C9.17513 16.8488 9.76828 17.4025 10.4174 17.7301L10.9658 17.99L10.3167 18.0013C9.68994 18.0013 9.66756 18.0126 9.73471 18.2499C9.95854 18.9843 10.8427 19.7639 11.8276 20.1029L12.5214 20.3401L11.9171 20.7017C11.0218 21.2214 9.96973 21.5152 8.91772 21.5378C8.41409 21.5491 8 21.5943 8 21.6282C8 21.7412 9.36538 22.3739 10.16 22.6225C12.5438 23.3569 15.3753 23.0405 17.5017 21.7864C19.0126 20.8938 20.5235 19.1199 21.2286 17.4025C21.6091 16.4873 21.9896 14.8151 21.9896 14.0129C21.9896 13.4931 22.0232 13.4253 22.6499 12.8039C23.0192 12.4423 23.3662 12.0469 23.4333 11.9339C23.5452 11.7192 23.534 11.7192 22.9633 11.9113C22.012 12.2503 21.8777 12.2051 22.3477 11.6966C22.6947 11.3351 23.1088 10.6797 23.1088 10.4877C23.1088 10.4538 22.9409 10.5103 22.7506 10.6119C22.5492 10.7249 22.1015 10.8944 21.7658 10.9961L21.1614 11.1882L20.613 10.8153C20.3108 10.6119 19.8856 10.386 19.6617 10.3182C19.0909 10.16 18.218 10.1826 17.7032 10.3634C16.3042 10.8718 15.4201 12.1825 15.5208 13.6174Z" fill="white"/>
</svg>
