<svg width="32" height="33" viewBox="0 0 32 33" fill="none" xmlns="http://www.w3.org/2000/svg">
<path fill-rule="evenodd" clip-rule="evenodd" d="M0 16.6123C0 7.77575 7.16344 0.612305 16 0.612305C24.8366 0.612305 32 7.77575 32 16.6123C32 25.4489 24.8366 32.6123 16 32.6123C7.16344 32.6123 0 25.4489 0 16.6123Z" fill="#E5F4F2"/>
<path fill-rule="evenodd" clip-rule="evenodd" d="M18.3723 13.0587H22.8919V11.7638H18.3723V13.0587ZM19.443 15.884C19.155 16.177 18.9734 16.574 18.8991 17.0749H22.4142C22.3771 16.5403 22.1945 16.1365 21.8714 15.8583C21.5442 15.5821 21.1419 15.4445 20.6602 15.4445C20.1384 15.4445 19.731 15.591 19.443 15.884ZM22.4935 14.1457C23.0383 14.3853 23.4869 14.7654 23.8401 15.2841C24.1622 15.7415 24.3689 16.2721 24.4632 16.875C24.5184 17.2274 24.5405 17.7382 24.5315 18.4025H18.8489C18.883 19.1736 19.152 19.7151 19.6657 20.025C19.9768 20.218 20.3511 20.315 20.7906 20.315C21.2532 20.315 21.6315 20.1972 21.9215 19.9626C22.081 19.8349 22.2215 19.6587 22.3419 19.433H24.4241C24.3689 19.8884 24.116 20.3526 23.6685 20.8239C22.9701 21.5713 21.9917 21.9455 20.7344 21.9455C19.6958 21.9455 18.7797 21.6307 17.988 20.9991C17.1922 20.3685 16.7969 19.3409 16.7969 17.9194C16.7969 16.5859 17.1551 15.5633 17.8706 14.8515C18.588 14.1417 19.5162 13.7844 20.6592 13.7844C21.3385 13.7844 21.9496 13.9051 22.4935 14.1457ZM9.569 17.1026V19.8775H12.1298C12.5874 19.8775 12.9446 19.8161 13.1985 19.6943C13.6611 19.4666 13.8919 19.035 13.8919 18.3955C13.8919 17.853 13.6691 17.4818 13.2206 17.2789C12.9697 17.166 12.6175 17.1066 12.1659 17.1026H9.569ZM9.569 13.0854V15.3811H12.1338C12.5904 15.3811 12.9627 15.295 13.2497 15.1227C13.5346 14.9505 13.6781 14.6456 13.6781 14.21C13.6781 13.7239 13.4895 13.4042 13.1122 13.2478C12.7851 13.1399 12.3696 13.0854 11.8649 13.0854H9.569ZM15.2967 12.3875C15.6188 12.8301 15.7804 13.3587 15.7804 13.9754C15.7804 14.61 15.6188 15.1218 15.2927 15.5079C15.1101 15.7237 14.8422 15.9217 14.488 16.0998C15.0258 16.2939 15.4312 16.5998 15.7071 17.0185C15.9801 17.4363 16.1176 17.9451 16.1176 18.543C16.1176 19.1598 15.961 19.7131 15.6469 20.2022C15.4483 20.5259 15.1994 20.7991 14.9004 21.0209C14.5642 21.2753 14.1678 21.4485 13.7093 21.5436C13.2507 21.6376 12.755 21.6831 12.2191 21.6831H7.4668V11.2788H12.5633C13.8498 11.2976 14.7599 11.6669 15.2967 12.3875Z" fill="#2D2D2D"/>
</svg>
