<svg width="27" height="26" viewBox="0 0 27 26" fill="none" xmlns="http://www.w3.org/2000/svg">
<path d="M14.0077 20.8796L19.8226 24.5716C20.5725 25.0447 21.4956 24.3409 21.2763 23.4755L19.5919 16.853C19.5463 16.6694 19.5535 16.4767 19.6127 16.2971C19.6719 16.1174 19.7807 15.9582 19.9264 15.8376L25.1414 11.488C25.8222 10.9226 25.476 9.78041 24.5876 9.72272L17.7804 9.28429C17.5947 9.27348 17.4161 9.20881 17.2666 9.09816C17.117 8.98752 17.0029 8.8357 16.9382 8.66126L14.3999 2.26943C14.3327 2.08472 14.2103 1.92515 14.0493 1.8124C13.8883 1.69964 13.6966 1.63916 13.5 1.63916C13.3034 1.63916 13.1117 1.69964 12.9507 1.8124C12.7897 1.92515 12.6673 2.08472 12.6001 2.26943L10.0618 8.66126C9.9971 8.8357 9.883 8.98752 9.73343 9.09816C9.58385 9.20881 9.40529 9.27348 9.21955 9.28429L2.41237 9.72272C1.52397 9.78041 1.17784 10.9226 1.85856 11.488L7.07356 15.8376C7.21932 15.9582 7.32806 16.1174 7.38726 16.2971C7.44645 16.4767 7.4537 16.6694 7.40815 16.853L5.85057 22.991C5.58521 24.0293 6.69282 24.8716 7.58121 24.3062L12.9923 20.8796C13.1441 20.7831 13.3202 20.7318 13.5 20.7318C13.6798 20.7318 13.8559 20.7831 14.0077 20.8796Z" fill="#F8D57E" stroke="#F8D57E" stroke-width="2" stroke-linecap="round" stroke-linejoin="round"/>
</svg>
