<svg width="27" height="27" viewBox="0 0 27 27" fill="none" xmlns="http://www.w3.org/2000/svg">
<path d="M14.0077 21.1843L19.8226 24.8763C20.5725 25.3493 21.4956 24.6455 21.2763 23.7802L19.5919 17.1576C19.5463 16.9741 19.5535 16.7814 19.6127 16.6017C19.6719 16.4221 19.7807 16.2629 19.9264 16.1423L25.1414 11.7927C25.8222 11.2273 25.476 10.0851 24.5876 10.0274L17.7804 9.58898C17.5947 9.57817 17.4161 9.51349 17.2666 9.40285C17.117 9.29221 17.0029 9.14039 16.9382 8.96595L14.3999 2.57412C14.3327 2.3894 14.2103 2.22984 14.0493 2.11708C13.8883 2.00433 13.6966 1.94385 13.5 1.94385C13.3034 1.94385 13.1117 2.00433 12.9507 2.11708C12.7897 2.22984 12.6673 2.3894 12.6001 2.57412L10.0618 8.96595C9.9971 9.14039 9.883 9.29221 9.73343 9.40285C9.58385 9.51349 9.40529 9.57817 9.21955 9.58898L2.41237 10.0274C1.52397 10.0851 1.17784 11.2273 1.85856 11.7927L7.07356 16.1423C7.21932 16.2629 7.32806 16.4221 7.38726 16.6017C7.44645 16.7814 7.4537 16.9741 7.40815 17.1576L5.85057 23.2956C5.58521 24.334 6.69282 25.1763 7.58121 24.6109L12.9923 21.1843C13.1441 21.0878 13.3202 21.0365 13.5 21.0365C13.6798 21.0365 13.8559 21.0878 14.0077 21.1843Z" fill="#F8D57E" stroke="#F8D57E" stroke-width="2" stroke-linecap="round" stroke-linejoin="round"/>
</svg>
