<svg width="20" height="21" viewBox="0 0 20 21" fill="none" xmlns="http://www.w3.org/2000/svg">
<path opacity="0.2" d="M10 13.1123C12.7614 13.1123 15 10.8737 15 8.1123C15 5.35088 12.7614 3.1123 10 3.1123C7.23858 3.1123 5 5.35088 5 8.1123C5 10.8737 7.23858 13.1123 10 13.1123Z" fill="#009379"/>
<path d="M10 13.1123C12.7614 13.1123 15 10.8737 15 8.1123C15 5.35088 12.7614 3.1123 10 3.1123C7.23858 3.1123 5 5.35088 5 8.1123C5 10.8737 7.23858 13.1123 10 13.1123Z" stroke="#009379" stroke-width="0.740741" stroke-miterlimit="10"/>
<path d="M2.42188 17.4875C3.18979 16.1572 4.2944 15.0524 5.62465 14.2843C6.9549 13.5162 8.46392 13.1118 10 13.1118C11.5361 13.1118 13.0451 13.5162 14.3753 14.2843C15.7056 15.0524 16.8102 16.1572 17.5781 17.4875" stroke="#009379" stroke-width="0.740741" stroke-linecap="round" stroke-linejoin="round"/>
</svg>
