<svg width="20" height="21" viewBox="0 0 20 21" fill="none" xmlns="http://www.w3.org/2000/svg">
<path opacity="0.2" d="M10 13.4082C12.7614 13.4082 15 11.1696 15 8.4082C15 5.64678 12.7614 3.4082 10 3.4082C7.23858 3.4082 5 5.64678 5 8.4082C5 11.1696 7.23858 13.4082 10 13.4082Z" fill="#87275D"/>
<path d="M10 13.4082C12.7614 13.4082 15 11.1696 15 8.4082C15 5.64678 12.7614 3.4082 10 3.4082C7.23858 3.4082 5 5.64678 5 8.4082C5 11.1696 7.23858 13.4082 10 13.4082Z" stroke="#87275D" stroke-width="0.740741" stroke-miterlimit="10"/>
<path d="M2.42188 17.7834C3.18979 16.4531 4.2944 15.3483 5.62465 14.5802C6.9549 13.8121 8.46392 13.4077 10 13.4077C11.5361 13.4077 13.0451 13.8121 14.3753 14.5802C15.7056 15.3483 16.8102 16.4531 17.5781 17.7834" stroke="#87275D" stroke-width="0.740741" stroke-linecap="round" stroke-linejoin="round"/>
</svg>
