<svg width="43" height="42" viewBox="0 0 43 42" fill="none" xmlns="http://www.w3.org/2000/svg">
<path opacity="0.2" d="M11.935 35.8148C11.8129 35.9389 11.6673 36.0373 11.5068 36.1046C11.3462 36.1718 11.1739 36.2064 10.9999 36.2064C10.8258 36.2064 10.6535 36.1718 10.4929 36.1046C10.3324 36.0373 10.1868 35.9389 10.0647 35.8148L6.68501 32.4352C6.561 32.313 6.46252 32.1675 6.3953 32.0069C6.32808 31.8464 6.29346 31.6741 6.29346 31.5C6.29346 31.3259 6.32808 31.1536 6.3953 30.9931C6.46252 30.8325 6.561 30.687 6.68501 30.5648L24.1249 13.125L29.3749 18.375L11.935 35.8148Z" fill="#FF6250"/>
<path d="M35.9375 21V28.875" stroke="#FF6250" stroke-width="2.375" stroke-linecap="round" stroke-linejoin="round"/>
<path d="M32 24.9375H39.875" stroke="#FF6250" stroke-width="2.375" stroke-linecap="round" stroke-linejoin="round"/>
<path d="M14.2812 6.5625V13.125" stroke="#FF6250" stroke-width="2.375" stroke-linecap="round" stroke-linejoin="round"/>
<path d="M11 9.84375H17.5625" stroke="#FF6250" stroke-width="2.375" stroke-linecap="round" stroke-linejoin="round"/>
<path d="M28.0625 30.1875V35.4375" stroke="#FF6250" stroke-width="2.375" stroke-linecap="round" stroke-linejoin="round"/>
<path d="M25.4375 32.8125H30.6875" stroke="#FF6250" stroke-width="2.375" stroke-linecap="round" stroke-linejoin="round"/>
<path d="M31.0857 6.17395L6.68882 30.5708C6.17626 31.0834 6.17626 31.9144 6.68882 32.4269L10.0821 35.8202C10.5947 36.3328 11.4257 36.3328 11.9383 35.8202L36.3351 11.4234C36.8477 10.9108 36.8477 10.0798 36.3351 9.56724L32.9418 6.17395C32.4293 5.66139 31.5982 5.66139 31.0857 6.17395Z" stroke="#FF6250" stroke-width="2.375" stroke-linecap="round" stroke-linejoin="round"/>
<path d="M24.125 13.125L29.375 18.375" stroke="#FF6250" stroke-width="2.375" stroke-linecap="round" stroke-linejoin="round"/>
</svg>
