<svg width="42" height="43" viewBox="0 0 42 43" fill="none" xmlns="http://www.w3.org/2000/svg">
<path opacity="0.2" d="M5.43047 12.8516C5.31159 13.0558 5.24929 13.2879 5.25001 13.5242V29.7008C5.25126 29.9344 5.31411 30.1636 5.4322 30.3653C5.5503 30.5669 5.71947 30.7338 5.92266 30.8492L20.3602 38.9703C20.5548 39.0815 20.7759 39.1382 21 39.1344L21.1477 21.6125L5.43047 12.8516Z" fill="#F8D57E"/>
<path d="M36.75 29.7008V13.5242C36.7487 13.2906 36.6859 13.0614 36.5678 12.8597C36.4497 12.6581 36.2805 12.4912 36.0773 12.3758L21.6398 4.2547C21.4453 4.14238 21.2246 4.08325 21 4.08325C20.7754 4.08325 20.5547 4.14238 20.3602 4.2547L5.92266 12.3758C5.71947 12.4912 5.55029 12.6581 5.4322 12.8597C5.3141 13.0614 5.25125 13.2906 5.25 13.5242V29.7008C5.25125 29.9345 5.3141 30.1637 5.4322 30.3653C5.55029 30.5669 5.71947 30.7338 5.92266 30.8492L20.3602 38.9703C20.5547 39.0826 20.7754 39.1418 21 39.1418C21.2246 39.1418 21.4453 39.0826 21.6398 38.9703L36.0773 30.8492C36.2805 30.7338 36.4497 30.5669 36.5678 30.3653C36.6859 30.1637 36.7487 29.9345 36.75 29.7008V29.7008Z" stroke="#F8D57E" stroke-width="2" stroke-linecap="round" stroke-linejoin="round"/>
<path d="M29.0391 25.6321V17.1008L13.125 8.32349" stroke="#F8D57E" stroke-width="2" stroke-linecap="round" stroke-linejoin="round"/>
<path d="M36.5697 12.8516L21.1479 21.6125L5.43066 12.8516" stroke="#F8D57E" stroke-width="2" stroke-linecap="round" stroke-linejoin="round"/>
<path d="M21.1477 21.6125L21 39.1344" stroke="#F8D57E" stroke-width="2" stroke-linecap="round" stroke-linejoin="round"/>
</svg>
