<svg width="20" height="21" viewBox="0 0 20 21" fill="none" xmlns="http://www.w3.org/2000/svg">
<path opacity="0.2" d="M7.22656 10.6584C7.8697 11.9865 8.94366 13.0577 10.2734 13.6974C10.3715 13.7439 10.48 13.764 10.5882 13.7557C10.6965 13.7475 10.8007 13.7113 10.8906 13.6505L12.8438 12.3458C12.93 12.2873 13.0298 12.2516 13.1336 12.242C13.2374 12.2325 13.342 12.2494 13.4375 12.2912L17.0938 13.8615C17.2187 13.9135 17.3231 14.0051 17.3909 14.1223C17.4586 14.2395 17.486 14.3757 17.4688 14.5099C17.3529 15.4144 16.9114 16.2457 16.2269 16.8482C15.5424 17.4507 14.6619 17.7831 13.75 17.7833C10.9321 17.7833 8.22956 16.6639 6.23699 14.6714C4.24442 12.6788 3.125 9.97628 3.125 7.15835C3.12521 6.24647 3.45767 5.36591 4.06018 4.68144C4.66269 3.99697 5.49395 3.55549 6.39844 3.4396C6.53269 3.42236 6.66888 3.44972 6.78605 3.51748C6.90322 3.58524 6.99487 3.68964 7.04687 3.8146L8.61719 7.47866C8.65802 7.57268 8.67511 7.67531 8.66693 7.77749C8.65876 7.87967 8.62558 7.97827 8.57031 8.0646L7.26562 10.049C7.20754 10.1387 7.17345 10.2419 7.16661 10.3486C7.15977 10.4553 7.18041 10.5619 7.22656 10.6584Z" fill="#87275D"/>
<path d="M7.22656 10.6584C7.8697 11.9865 8.94366 13.0577 10.2734 13.6974C10.3715 13.7439 10.48 13.764 10.5882 13.7557C10.6965 13.7475 10.8007 13.7113 10.8906 13.6505L12.8437 12.3459C12.93 12.2873 13.0298 12.2516 13.1336 12.242C13.2374 12.2325 13.342 12.2494 13.4375 12.2912L17.0938 13.8615C17.2187 13.9135 17.3231 14.0051 17.3909 14.1223C17.4586 14.2395 17.486 14.3757 17.4688 14.5099C17.3529 15.4144 16.9114 16.2457 16.2269 16.8482C15.5424 17.4507 14.6619 17.7831 13.75 17.7834C10.9321 17.7834 8.22956 16.6639 6.23699 14.6714C4.24442 12.6788 3.125 9.97628 3.125 7.15835C3.12521 6.24647 3.45767 5.36591 4.06018 4.68144C4.66269 3.99697 5.49395 3.55549 6.39844 3.4396C6.53269 3.42236 6.66888 3.44972 6.78605 3.51748C6.90322 3.58524 6.99487 3.68964 7.04687 3.8146L8.61719 7.47866C8.65802 7.57268 8.67511 7.67531 8.66693 7.77749C8.65876 7.87967 8.62558 7.97827 8.57031 8.0646L7.26562 10.049C7.20754 10.1387 7.17345 10.2419 7.16661 10.3486C7.15977 10.4553 7.18041 10.5619 7.22656 10.6584Z" stroke="#87275D" stroke-width="1.5" stroke-linecap="round" stroke-linejoin="round"/>
<path d="M12.4531 4.0332C13.5132 4.31771 14.4799 4.87606 15.256 5.6522C16.0321 6.42834 16.5905 7.39497 16.875 8.45508" stroke="#87275D" stroke-width="1.5" stroke-linecap="round" stroke-linejoin="round"/>
<path d="M11.8047 6.44727C12.4423 6.6166 13.0238 6.95147 13.4903 7.41795C13.9567 7.88442 14.2916 8.46592 14.4609 9.10352" stroke="#87275D" stroke-width="1.5" stroke-linecap="round" stroke-linejoin="round"/>
</svg>
