<svg width="20" height="21" viewBox="0 0 20 21" fill="none" xmlns="http://www.w3.org/2000/svg">
<path d="M7.35156 15.1455C6.46094 17.7939 2.92969 17.7939 2.92969 17.7939C2.92969 17.7939 2.92969 14.2627 5.57813 13.3721" stroke="#F8F9FF" stroke-width="1.5" stroke-linecap="round" stroke-linejoin="round"/>
<path d="M15.3047 8.9581L10 14.2628L6.46094 10.7237L11.7656 5.41904C13.7734 3.41122 15.7812 3.43466 16.6406 3.55966C16.7732 3.57735 16.8963 3.63819 16.9909 3.73279C17.0855 3.82739 17.1464 3.95049 17.1641 4.0831C17.2891 4.94247 17.3125 6.95029 15.3047 8.9581Z" stroke="#F8F9FF" stroke-width="1.5" stroke-linecap="round" stroke-linejoin="round"/>
<path d="M14.4219 9.84082V14.8877C14.4195 15.0526 14.3521 15.2098 14.2344 15.3252L11.7109 17.8564C11.6309 17.9364 11.5306 17.9931 11.4208 18.0206C11.3111 18.048 11.1959 18.0452 11.0876 18.0123C10.9794 17.9794 10.882 17.9177 10.8061 17.8339C10.7301 17.75 10.6783 17.6471 10.6562 17.5361L10 14.2627" stroke="#F8F9FF" stroke-width="1.5" stroke-linecap="round" stroke-linejoin="round"/>
<path d="M10.883 6.30176H5.83612C5.67127 6.30411 5.51402 6.3715 5.39862 6.48926L2.86737 9.0127C2.78741 9.09275 2.73068 9.19302 2.70323 9.30279C2.67579 9.41257 2.67866 9.52774 2.71154 9.63601C2.74442 9.74428 2.80608 9.84159 2.88994 9.91756C2.9738 9.99353 3.07671 10.0453 3.18769 10.0674L6.46112 10.7236" stroke="#F8F9FF" stroke-width="1.5" stroke-linecap="round" stroke-linejoin="round"/>
</svg>
