<svg width="21" height="21" viewBox="0 0 21 21" fill="none" xmlns="http://www.w3.org/2000/svg">
<path d="M7.85156 15.0342C6.96094 17.6826 3.42969 17.6826 3.42969 17.6826C3.42969 17.6826 3.42969 14.1514 6.07813 13.2607" stroke="#F8F9FF" stroke-width="1.5" stroke-linecap="round" stroke-linejoin="round"/>
<path d="M15.8047 8.84677L10.5 14.1515L6.96094 10.6124L12.2656 5.30771C14.2734 3.2999 16.2812 3.32333 17.1406 3.44833C17.2732 3.46602 17.3963 3.52686 17.4909 3.62146C17.5855 3.71606 17.6464 3.83916 17.6641 3.97177C17.7891 4.83115 17.8125 6.83896 15.8047 8.84677Z" stroke="#F8F9FF" stroke-width="1.5" stroke-linecap="round" stroke-linejoin="round"/>
<path d="M14.9219 9.72949V14.7764C14.9195 14.9412 14.8521 15.0985 14.7344 15.2139L12.2109 17.7451C12.1309 17.8251 12.0306 17.8818 11.9208 17.9093C11.8111 17.9367 11.6959 17.9338 11.5876 17.9009C11.4794 17.8681 11.382 17.8064 11.3061 17.7226C11.2301 17.6387 11.1783 17.5358 11.1562 17.4248L10.5 14.1514" stroke="#F8F9FF" stroke-width="1.5" stroke-linecap="round" stroke-linejoin="round"/>
<path d="M11.383 6.19043H6.33612C6.17127 6.19278 6.01402 6.26017 5.89862 6.37793L3.36737 8.90137C3.28741 8.98142 3.23068 9.08169 3.20323 9.19147C3.17579 9.30124 3.17866 9.41641 3.21154 9.52468C3.24442 9.63295 3.30608 9.73026 3.38994 9.80623C3.4738 9.88221 3.57671 9.93399 3.68769 9.95605L6.96112 10.6123" stroke="#F8F9FF" stroke-width="1.5" stroke-linecap="round" stroke-linejoin="round"/>
</svg>
