<svg width="32" height="33" viewBox="0 0 32 33" fill="none" xmlns="http://www.w3.org/2000/svg">
<path fill-rule="evenodd" clip-rule="evenodd" d="M0 16.6123C0 7.77575 7.16344 0.612305 16 0.612305C24.8366 0.612305 32 7.77575 32 16.6123C32 25.4489 24.8366 32.6123 16 32.6123C7.16344 32.6123 0 25.4489 0 16.6123Z" fill="#E5F4F2"/>
<path fill-rule="evenodd" clip-rule="evenodd" d="M24.5335 16.6006C24.5335 17.1777 24.4747 17.754 24.3593 18.3157C24.2468 18.8641 24.0801 19.4026 23.8618 19.9172C23.6485 20.4228 23.3839 20.91 23.0747 21.3644C22.7701 21.8159 22.4192 22.2394 22.0338 22.6256C21.6475 23.01 21.2225 23.3599 20.7712 23.6658C20.3154 23.9728 19.8275 24.237 19.3216 24.4514C18.8061 24.6686 18.2665 24.835 17.7186 24.9473C17.1561 25.063 16.5777 25.1221 15.9997 25.1221C15.4214 25.1221 14.843 25.063 14.2813 24.9473C13.7326 24.835 13.1929 24.6686 12.6779 24.4514C12.1721 24.237 11.6837 23.9728 11.2278 23.6658C10.7766 23.3599 10.3516 23.01 9.96611 22.6256C9.58027 22.2394 9.2294 21.8159 8.92439 21.3644C8.61687 20.91 8.35184 20.4228 8.13768 19.9172C7.9193 19.4026 7.75224 18.8641 7.63931 18.3157C7.52515 17.754 7.4668 17.1777 7.4668 16.6006C7.4668 16.0231 7.52511 15.4456 7.63934 14.885C7.75227 14.3366 7.91934 13.7974 8.13771 13.2835C8.35187 12.7776 8.6169 12.2899 8.92442 11.8356C9.22943 11.3837 9.5803 10.9609 9.96614 10.5744C10.3516 10.1899 10.7766 9.84083 11.2279 9.53542C11.6837 9.22708 12.1721 8.9629 12.6779 8.74818C13.193 8.53052 13.7326 8.3637 14.2814 8.2522C14.8431 8.13737 15.4214 8.0791 15.9998 8.0791C16.5777 8.0791 17.1561 8.13737 17.7186 8.2522C18.2665 8.36373 18.8061 8.53056 19.3216 8.74818C19.8275 8.96287 20.3154 9.22708 20.7713 9.53542C21.2225 9.84083 21.6476 10.1899 22.0338 10.5744C22.4193 10.9609 22.7701 11.3837 23.0747 11.8356C23.3839 12.2899 23.6485 12.7776 23.8618 13.2835C24.0801 13.7974 24.2468 14.3366 24.3593 14.885C24.4747 15.4456 24.5335 16.0231 24.5335 16.6006ZM12.8904 10.0185C10.8582 10.9768 9.34143 12.8466 8.86848 15.1002C9.0606 15.1018 12.0974 15.1401 15.5963 14.2118C14.335 11.9741 12.9875 10.1479 12.8904 10.0185ZM16.2001 15.3324C12.4479 16.4541 8.84724 16.3734 8.71808 16.3684C8.71597 16.4466 8.71223 16.5224 8.71223 16.6006C8.71223 18.47 9.41851 20.1743 10.5794 21.463C10.5769 21.4592 12.5712 17.9262 16.5039 16.6564C16.5989 16.6247 16.6956 16.5964 16.7914 16.569C16.6085 16.1554 16.4089 15.741 16.2001 15.3324ZM20.8125 11.139C19.5295 10.0093 17.8448 9.32406 15.9997 9.32406C15.4076 9.32406 14.833 9.39564 14.2825 9.52795C14.3917 9.67443 15.7605 11.4877 17.0068 13.7728C19.7566 12.7435 20.7945 11.1656 20.8125 11.139ZM17.2882 17.7748C17.2719 17.7802 17.2557 17.7848 17.2398 17.7906C12.9401 19.2874 11.536 22.3039 11.5208 22.3368C12.7579 23.2975 14.3097 23.8771 15.9998 23.8771C17.009 23.8771 17.9703 23.672 18.8449 23.3004C18.737 22.6647 18.3136 20.4361 17.2882 17.7748ZM20.072 22.6355C21.7083 21.5329 22.8705 19.782 23.1946 17.754C23.0446 17.7057 21.0058 17.0612 18.6536 17.4377C19.6095 20.0608 19.9978 22.197 20.072 22.6355ZM17.5678 14.8572C17.7369 15.2042 17.9007 15.5574 18.0519 15.9124C18.1057 16.0397 18.1582 16.1645 18.2095 16.2894C20.7129 15.9748 23.1793 16.504 23.2847 16.5257C23.2681 14.8006 22.6501 13.2174 21.6276 11.9779C21.6138 11.9974 20.445 13.6838 17.5678 14.8572Z" fill="#2D2D2D"/>
</svg>
