<svg width="32" height="33" viewBox="0 0 32 33" fill="none" xmlns="http://www.w3.org/2000/svg">
<path fill-rule="evenodd" clip-rule="evenodd" d="M0 16.0283C0 7.19176 7.16344 0.0283203 16 0.0283203C24.8366 0.0283203 32 7.19176 32 16.0283C32 24.8649 24.8366 32.0283 16 32.0283C7.16344 32.0283 0 24.8649 0 16.0283Z" fill="#831742" fill-opacity="0.18"/>
<path fill-rule="evenodd" clip-rule="evenodd" d="M16.0008 7.49512C13.6833 7.49512 13.3924 7.50525 12.4822 7.54667C11.5737 7.58827 10.9536 7.7321 10.4111 7.94312C9.84981 8.16108 9.37372 8.45264 8.8994 8.92713C8.42473 9.40145 8.13317 9.87754 7.9145 10.4386C7.70294 10.9814 7.55894 11.6016 7.51805 12.5097C7.47734 13.42 7.46667 13.711 7.46667 16.0285C7.46667 18.3461 7.47699 18.636 7.51823 19.5463C7.56001 20.4547 7.70383 21.0748 7.91468 21.6174C8.13282 22.1786 8.42437 22.6547 8.89887 23.1291C9.37301 23.6037 9.8491 23.896 10.41 24.114C10.9529 24.325 11.5732 24.4688 12.4815 24.5104C13.3917 24.5518 13.6824 24.562 15.9997 24.562C18.3175 24.562 18.6074 24.5518 19.5176 24.5104C20.4261 24.4688 21.0469 24.325 21.5898 24.114C22.1509 23.896 22.6263 23.6037 23.1004 23.1291C23.5751 22.6547 23.8667 22.1786 24.0853 21.6176C24.2951 21.0748 24.4391 20.4545 24.4818 19.5464C24.5227 18.6362 24.5333 18.3461 24.5333 16.0285C24.5333 13.711 24.5227 13.4202 24.4818 12.5099C24.4391 11.6015 24.2951 10.9814 24.0853 10.4388C23.8667 9.87754 23.5751 9.40145 23.1004 8.92713C22.6258 8.45246 22.1511 8.1609 21.5893 7.94312C21.0453 7.7321 20.4249 7.58827 19.5164 7.54667C18.6062 7.50525 18.3164 7.49512 15.9981 7.49512H16.0008ZM15.2353 9.03289C15.4625 9.03253 15.716 9.03289 16.0008 9.03289C18.2792 9.03289 18.5492 9.04106 19.449 9.08195C20.281 9.12 20.7326 9.25902 21.0334 9.37582C21.4316 9.53049 21.7155 9.71538 22.014 10.0141C22.3127 10.3127 22.4976 10.5972 22.6526 10.9954C22.7694 11.2958 22.9086 11.7474 22.9464 12.5794C22.9873 13.479 22.9962 13.7492 22.9962 16.0266C22.9962 18.3039 22.9873 18.5741 22.9464 19.4737C22.9084 20.3057 22.7694 20.7573 22.6526 21.0577C22.4979 21.456 22.3127 21.7395 22.014 22.038C21.7153 22.3367 21.4318 22.5216 21.0334 22.6762C20.7329 22.7936 20.281 22.9322 19.449 22.9703C18.5494 23.0112 18.2792 23.0201 16.0008 23.0201C13.7222 23.0201 13.4521 23.0112 12.5526 22.9703C11.7205 22.9319 11.269 22.7929 10.968 22.6761C10.5698 22.5214 10.2853 22.3365 9.98666 22.0378C9.68799 21.7392 9.5031 21.4554 9.34808 21.057C9.23128 20.7566 9.09208 20.305 9.05421 19.473C9.01332 18.5734 9.00514 18.3032 9.00514 16.0244C9.00514 13.7456 9.01332 13.4768 9.05421 12.5773C9.09226 11.7453 9.23128 11.2937 9.34808 10.9929C9.50275 10.5947 9.68799 10.3102 9.98666 10.0116C10.2853 9.71289 10.5698 9.528 10.968 9.37298C11.2688 9.25564 11.7205 9.11698 12.5526 9.07875C13.3398 9.0432 13.6448 9.03253 15.2353 9.03075V9.03289ZM20.5558 10.4498C19.9905 10.4498 19.5318 10.9079 19.5318 11.4734C19.5318 12.0388 19.9905 12.4975 20.5558 12.4975C21.1212 12.4975 21.5799 12.0388 21.5799 11.4734C21.5799 10.9081 21.1212 10.4498 20.5558 10.4498ZM16.0008 11.6462C13.5807 11.6462 11.6186 13.6084 11.6186 16.0285C11.6186 18.4486 13.5807 20.4099 16.0008 20.4099C18.4209 20.4099 20.3824 18.4486 20.3824 16.0285C20.3824 13.6084 18.4209 11.6462 16.0008 11.6462ZM16.0008 13.184C17.5717 13.184 18.8453 14.4575 18.8453 16.0285C18.8453 17.5994 17.5717 18.873 16.0008 18.873C14.4298 18.873 13.1563 17.5994 13.1563 16.0285C13.1563 14.4575 14.4298 13.184 16.0008 13.184Z" fill="#831742"/>
</svg>
