<svg width="32" height="33" viewBox="0 0 32 33" fill="none" xmlns="http://www.w3.org/2000/svg">
<path fill-rule="evenodd" clip-rule="evenodd" d="M0 16.2637C0 7.42712 7.16344 0.263672 16 0.263672C24.8366 0.263672 32 7.42712 32 16.2637C32 25.1002 24.8366 32.2637 16 32.2637C7.16344 32.2637 0 25.1002 0 16.2637Z" fill="#4E4D4D"/>
<path fill-rule="evenodd" clip-rule="evenodd" d="M24.5335 16.252C24.5335 16.8291 24.4747 17.4054 24.3593 17.9671C24.2468 18.5155 24.0801 19.0539 23.8618 19.5686C23.6485 20.0742 23.3839 20.5614 23.0747 21.0158C22.7701 21.4672 22.4192 21.8908 22.0338 22.2769C21.6475 22.6614 21.2225 23.0113 20.7712 23.3172C20.3154 23.6242 19.8275 23.8884 19.3216 24.1027C18.8061 24.3199 18.2665 24.4863 17.7186 24.5987C17.1561 24.7144 16.5777 24.7734 15.9997 24.7734C15.4214 24.7734 14.843 24.7144 14.2813 24.5987C13.7326 24.4863 13.1929 24.3199 12.6779 24.1027C12.1721 23.8884 11.6837 23.6242 11.2278 23.3172C10.7766 23.0113 10.3516 22.6614 9.96611 22.2769C9.58027 21.8908 9.2294 21.4672 8.92439 21.0158C8.61687 20.5614 8.35184 20.0742 8.13768 19.5686C7.9193 19.0539 7.75224 18.5155 7.63931 17.9671C7.52515 17.4054 7.4668 16.8291 7.4668 16.252C7.4668 15.6744 7.52511 15.0969 7.63934 14.5364C7.75227 13.988 7.91934 13.4488 8.13771 12.9349C8.35187 12.429 8.6169 11.9413 8.92442 11.4869C9.22943 11.0351 9.5803 10.6123 9.96614 10.2257C10.3516 9.84126 10.7766 9.4922 11.2279 9.18679C11.6837 8.87845 12.1721 8.61427 12.6779 8.39955C13.193 8.18189 13.7326 8.01506 14.2814 7.90357C14.8431 7.78873 15.4214 7.73047 15.9998 7.73047C16.5777 7.73047 17.1561 7.78873 17.7186 7.90357C18.2665 8.0151 18.8061 8.18192 19.3216 8.39955C19.8275 8.61423 20.3154 8.87845 20.7713 9.18679C21.2225 9.4922 21.6476 9.84126 22.0338 10.2257C22.4193 10.6123 22.7701 11.0351 23.0747 11.4869C23.3839 11.9413 23.6485 12.429 23.8618 12.9349C24.0801 13.4488 24.2468 13.988 24.3593 14.5364C24.4747 15.0969 24.5335 15.6744 24.5335 16.252ZM12.8904 9.66985C10.8582 10.6281 9.34143 12.498 8.86848 14.7515C9.0606 14.7532 12.0974 14.7915 15.5963 13.8632C14.335 11.6255 12.9875 9.79929 12.8904 9.66985ZM16.2001 14.9837C12.4479 16.1055 8.84724 16.0248 8.71808 16.0198C8.71597 16.098 8.71223 16.1737 8.71223 16.252C8.71223 18.1214 9.41851 19.8257 10.5794 21.1144C10.5769 21.1106 12.5712 17.5776 16.5039 16.3077C16.5989 16.2761 16.6956 16.2478 16.7914 16.2203C16.6085 15.8068 16.4089 15.3923 16.2001 14.9837ZM20.8125 10.7904C19.5295 9.66068 17.8448 8.97543 15.9997 8.97543C15.4076 8.97543 14.833 9.047 14.2825 9.17931C14.3917 9.3258 15.7605 11.1391 17.0068 13.4242C19.7566 12.3948 20.7945 10.817 20.8125 10.7904ZM17.2882 17.4262C17.2719 17.4315 17.2557 17.4362 17.2398 17.442C12.9401 18.9388 11.536 21.9552 11.5208 21.9881C12.7579 22.9489 14.3097 23.5285 15.9998 23.5285C17.009 23.5285 17.9703 23.3233 18.8449 22.9518C18.737 22.316 18.3136 20.0875 17.2882 17.4262ZM20.072 22.2869C21.7083 21.1843 22.8705 19.4334 23.1946 17.4053C23.0446 17.3571 21.0058 16.7125 18.6536 17.0891C19.6095 19.7122 19.9978 21.8484 20.072 22.2869ZM17.5678 14.5085C17.7369 14.8556 17.9007 15.2088 18.0519 15.5637C18.1057 15.6911 18.1582 15.8159 18.2095 15.9407C20.7129 15.6261 23.1793 16.1554 23.2847 16.177C23.2681 14.4519 22.6501 12.8687 21.6276 11.6292C21.6138 11.6487 20.445 13.3352 17.5678 14.5085Z" fill="white"/>
</svg>
