<svg width="32" height="33" viewBox="0 0 32 33" fill="none" xmlns="http://www.w3.org/2000/svg">
<path fill-rule="evenodd" clip-rule="evenodd" d="M0 16.6123C0 7.77575 7.16344 0.612305 16 0.612305C24.8366 0.612305 32 7.77575 32 16.6123C32 25.4489 24.8366 32.6123 16 32.6123C7.16344 32.6123 0 25.4489 0 16.6123Z" fill="#4E4D4D"/>
<path fill-rule="evenodd" clip-rule="evenodd" d="M16.0009 8.0791C13.6834 8.0791 13.3925 8.08924 12.4823 8.13066C11.5739 8.17226 10.9538 8.31608 10.4112 8.52711C9.84993 8.74506 9.37384 9.03662 8.89952 9.51112C8.42485 9.98543 8.13329 10.4615 7.91462 11.0226C7.70307 11.5654 7.55906 12.1856 7.51818 13.0937C7.47746 14.004 7.4668 14.295 7.4668 16.6125C7.4668 18.9301 7.47711 19.22 7.51835 20.1302C7.56013 21.0387 7.70395 21.6588 7.9148 22.2014C8.13294 22.7626 8.4245 23.2387 8.89899 23.713C9.37313 24.1877 9.84922 24.48 10.4101 24.6979C10.9531 24.909 11.5733 25.0528 12.4816 25.0944C13.3918 25.1358 13.6825 25.1459 15.9999 25.1459C18.3176 25.1459 18.6075 25.1358 19.5178 25.0944C20.4262 25.0528 21.047 24.909 21.59 24.6979C22.151 24.48 22.6264 24.1877 23.1006 23.713C23.5752 23.2387 23.8668 22.7626 24.0855 22.2016C24.2952 21.6588 24.4392 21.0385 24.4819 20.1304C24.5228 19.2202 24.5335 18.9301 24.5335 16.6125C24.5335 14.295 24.5228 14.0041 24.4819 13.0939C24.4392 12.1855 24.2952 11.5654 24.0855 11.0228C23.8668 10.4615 23.5752 9.98543 23.1006 9.51112C22.6259 9.03644 22.1512 8.74489 21.5894 8.52711C21.0454 8.31608 20.425 8.17226 19.5165 8.13066C18.6063 8.08924 18.3165 8.0791 15.9983 8.0791H16.0009ZM15.2354 9.61687C15.4626 9.61652 15.7161 9.61687 16.0009 9.61687C18.2793 9.61687 18.5494 9.62505 19.4491 9.66594C20.2811 9.70398 20.7327 9.84301 21.0335 9.95981C21.4317 10.1145 21.7156 10.2994 22.0141 10.598C22.3128 10.8967 22.4977 11.1812 22.6527 11.5794C22.7695 11.8798 22.9087 12.3314 22.9466 13.1634C22.9875 14.063 22.9963 14.3332 22.9963 16.6105C22.9963 18.8879 22.9875 19.1581 22.9466 20.0577C22.9085 20.8897 22.7695 21.3413 22.6527 21.6417C22.498 22.0399 22.3128 22.3235 22.0141 22.622C21.7154 22.9207 21.4319 23.1055 21.0335 23.2602C20.733 23.3775 20.2811 23.5162 19.4491 23.5543C18.5495 23.5952 18.2793 23.604 16.0009 23.604C13.7223 23.604 13.4522 23.5952 12.5527 23.5543C11.7207 23.5159 11.2691 23.3768 10.9681 23.26C10.5699 23.1054 10.2855 22.9205 9.98679 22.6218C9.68812 22.3231 9.50323 22.0394 9.3482 21.641C9.2314 21.3405 9.0922 20.889 9.05433 20.057C9.01344 19.1574 9.00527 18.8872 9.00527 16.6084C9.00527 14.3296 9.01344 14.0608 9.05433 13.1613C9.09238 12.3293 9.2314 11.8777 9.3482 11.5769C9.50287 11.1787 9.68812 10.8942 9.98679 10.5955C10.2855 10.2969 10.5699 10.112 10.9681 9.95696C11.2689 9.83963 11.7207 9.70096 12.5527 9.66274C13.3399 9.62718 13.645 9.61652 15.2354 9.61474V9.61687ZM20.556 11.0338C19.9906 11.0338 19.532 11.4919 19.532 12.0574C19.532 12.6228 19.9906 13.0814 20.556 13.0814C21.1213 13.0814 21.58 12.6228 21.58 12.0574C21.58 11.4921 21.1213 11.0338 20.556 11.0338ZM16.0009 12.2302C13.5808 12.2302 11.6187 14.1924 11.6187 16.6125C11.6187 19.0326 13.5808 20.9939 16.0009 20.9939C18.4211 20.9939 20.3825 19.0326 20.3825 16.6125C20.3825 14.1924 18.4211 12.2302 16.0009 12.2302ZM16.0009 13.768C17.5718 13.768 18.8454 15.0415 18.8454 16.6125C18.8454 18.1834 17.5718 19.457 16.0009 19.457C14.4299 19.457 13.1564 18.1834 13.1564 16.6125C13.1564 15.0415 14.4299 13.768 16.0009 13.768Z" fill="white"/>
</svg>
