<svg width="26" height="26" viewBox="0 0 26 26" fill="none" xmlns="http://www.w3.org/2000/svg">
<path d="M13.5077 20.8054L19.3226 24.4974C20.0725 24.9704 20.9956 24.2666 20.7763 23.4013L19.0919 16.7787C19.0463 16.5952 19.0535 16.4025 19.1127 16.2228C19.1719 16.0432 19.2807 15.884 19.4264 15.7634L24.6414 11.4138C25.3222 10.8484 24.976 9.70619 24.0876 9.6485L17.2804 9.21007C17.0947 9.19927 16.9161 9.13459 16.7666 9.02394C16.617 8.9133 16.5029 8.76148 16.4382 8.58704L13.8999 2.19521C13.8327 2.0105 13.7103 1.85093 13.5493 1.73818C13.3883 1.62542 13.1966 1.56494 13 1.56494C12.8034 1.56494 12.6117 1.62542 12.4507 1.73818C12.2897 1.85093 12.1673 2.0105 12.1001 2.19521L9.56179 8.58704C9.4971 8.76148 9.383 8.9133 9.23343 9.02394C9.08385 9.13459 8.90529 9.19927 8.71955 9.21007L1.91237 9.6485C1.02397 9.70619 0.677844 10.8484 1.35856 11.4138L6.57356 15.7634C6.71932 15.884 6.82806 16.0432 6.88726 16.2228C6.94645 16.4025 6.9537 16.5952 6.90815 16.7787L5.35057 22.9167C5.08521 23.9551 6.19282 24.7974 7.08121 24.232L12.4923 20.8054C12.6441 20.7089 12.8202 20.6576 13 20.6576C13.1798 20.6576 13.3559 20.7089 13.5077 20.8054Z" fill="#F8D57E" stroke="#F8D57E" stroke-width="2" stroke-linecap="round" stroke-linejoin="round"/>
</svg>
