<svg width="27" height="26" viewBox="0 0 27 26" fill="none" xmlns="http://www.w3.org/2000/svg">
<path d="M14.0077 21.0998L19.8226 24.7918C20.5725 25.2649 21.4956 24.5611 21.2763 23.6958L19.5919 17.0732C19.5463 16.8896 19.5535 16.6969 19.6127 16.5173C19.6719 16.3376 19.7807 16.1784 19.9264 16.0579L25.1414 11.7082C25.8222 11.1428 25.476 10.0006 24.5876 9.94293L17.7804 9.50451C17.5947 9.4937 17.4161 9.42902 17.2666 9.31838C17.117 9.20773 17.0029 9.05592 16.9382 8.88148L14.3999 2.48965C14.3327 2.30493 14.2103 2.14537 14.0493 2.03261C13.8883 1.91986 13.6966 1.85938 13.5 1.85938C13.3034 1.85938 13.1117 1.91986 12.9507 2.03261C12.7897 2.14537 12.6673 2.30493 12.6001 2.48965L10.0618 8.88148C9.9971 9.05592 9.883 9.20773 9.73343 9.31838C9.58385 9.42902 9.40529 9.4937 9.21955 9.50451L2.41237 9.94293C1.52397 10.0006 1.17784 11.1428 1.85856 11.7082L7.07356 16.0579C7.21932 16.1784 7.32806 16.3376 7.38726 16.5173C7.44645 16.6969 7.4537 16.8896 7.40815 17.0732L5.85057 23.2112C5.58521 24.2496 6.69282 25.0918 7.58121 24.5265L12.9923 21.0998C13.1441 21.0033 13.3202 20.9521 13.5 20.9521C13.6798 20.9521 13.8559 21.0033 14.0077 21.0998Z" fill="#F8D57E" stroke="#F8D57E" stroke-width="2" stroke-linecap="round" stroke-linejoin="round"/>
</svg>
